<svg version="1.1" xmlns="http://www.w3.org/2000/svg" xmlns:xlink="http://www.w3.org/1999/xlink" width="1560" height="804"><defs/><g><path fill="none" stroke="#02063B" paint-order="fill stroke markers" d=" M 20 418.6787743275645 L 21 419.48885685444986 L 22 420.29547011576375 L 23 421.0984541035856 L 24 421.8976495299341 L 25 422.69289785836514 L 26 423.48404133542067 L 27 424.2709230219222 L 28 425.0533868241029 L 29 425.831277524572 L 30 426.604440813105 L 31 427.37272331725455 L 32 428.13597263277467 L 33 428.8940373538535 L 34 429.64676710314717 L 35 430.39401256161085 L 36 431.13562549811854 L 37 431.871458798868 L 38 432.6013664965638 L 39 433.32520379937256 L 40 434.0428271196457 L 41 434.7540941024025 L 42 435.4588636535695 L 43 436.156995967969 L 44 436.84835255705235 L 45 437.532796276372 L 46 438.2101913527867 L 47 438.88040341139504 L 48 439.5432995021912 L 49 440.1987481264382 L 50 440.84661926275373 L 51 441.48678439290205 L 52 442.11911652728816 L 53 442.74349023014923 L 54 443.3597816444367 L 55 443.96786851638615 L 56 444.56763021976883 L 57 445.1589477798199 L 58 445.7417038968401 L 59 446.3157829694637 L 60 446.8810711175912 L 61 447.43745620497907 L 62 447.9848278614845 L 63 448.5230775049596 L 64 449.05209836279056 L 65 449.5717854930785 L 66 450.0820358054565 L 67 450.58274808153993 L 68 451.0738229950048 L 69 451.5551631312914 L 70 452.02667300692843 L 71 452.4882590884738 L 72 452.93982981106916 L 73 453.38129559660354 L 74 453.81256887148277 L 75 454.23356408400184 L 76 454.64419772131544 L 77 455.04438832600454 L 78 455.43405651223514 L 79 455.8131249815061 L 80 456.1815185379827 L 81 456.53916410341316 L 82 456.8859907316256 L 83 457.2219296226011 L 84 457.546914136122 L 85 457.86087980499104 L 86 458.1637643478199 L 87 458.4555076813838 L 88 458.7360519325404 L 89 459.00534144970993 L 90 459.26332281391495 L 91 459.5099448493769 L 92 459.745158633668 L 93 459.9689175074158 L 94 460.1811770835594 L 95 460.381895256154 L 96 460.57103220872386 L 97 460.7485504221604 L 98 460.91441468216516 L 99 461.068592086235 L 100 461.21105205018915 L 101 461.3417663142361 L 102 461.46070894857957 L 103 461.5678563585621 L 104 461.6631872893456 L 105 461.7466828301277 L 106 461.81832641789305 L 107 461.8781038406989 L 108 461.9260032404942 L 109 461.96201511547235 L 110 461.9861323219555 L 111 461.99835007581197 L 112 461.99866595340524 L 113 461.9870798920746 L 114 461.9635941901477 L 115 461.9282135064847 L 116 461.8809448595539 L 117 461.8217976260396 L 118 461.750783538982 L 119 461.6679166854497 L 120 461.5732135037455 L 121 461.46669278014497 L 122 461.34837564517056 L 123 461.21828556939926 L 124 461.07644835880717 L 125 460.92289214965007 L 126 460.7576474028824 L 127 460.5807468981143 L 128 460.39222572710935 L 129 460.1921212868236 L 130 459.9804732719865 L 131 459.7573236672275 L 132 459.52271673874685 L 133 459.27669902553487 L 134 459.0193193301399 L 135 458.7506287089875 L 136 458.47068046225195 L 137 458.1795301232837 L 138 457.8772354475927 L 139 457.5638564013917 L 140 457.2394551497007 L 141 456.9040960440152 L 142 456.5578456095409 L 143 456.2007725319971 L 144 455.83294764399125 L 145 455.4544439109682 L 146 455.0653364167361 L 147 454.6657023485715 L 148 454.25562098190824 L 149 453.8351736646113 L 150 453.40444380084006 L 151 452.9635168345031 L 152 452.5124802323088 L 153 452.0514234664148 L 154 451.58043799667905 L 155 451.09961725251713 L 156 450.6090566143686 L 157 450.1088533947763 L 158 449.5991068190826 L 159 449.0799180057459 L 160 448.55138994628203 L 161 448.0136274848333 L 162 447.46673729737125 L 163 446.9108278705347 L 164 446.34600948010973 L 165 445.77239416915387 L 166 445.1900957257704 L 167 444.599229660536 L 168 443.9999131835872 L 169 443.392265181369 L 170 442.7764061930517 L 171 442.1524583866193 L 172 441.5205455346352 L 173 440.8807929896892 L 174 440.23332765953177 L 175 439.5782779818988 L 176 438.91577389903364 L 177 438.2459468319105 L 178 437.5689296541645 L 179 436.88485666573325 L 180 436.1938635662161 L 181 435.4960874279552 L 182 434.79166666884447 L 183 434.08074102487166 L 184 433.3634515223989 L 185 432.6399404501874 L 186 431.91035133117146 L 187 431.17482889398786 L 188 430.43351904426606 L 189 429.686568835685 L 190 428.9341264408019 L 191 428.1763411216591 L 192 427.4133632001754 L 193 426.6453440283264 L 194 425.87243595812066 L 195 425.09479231137794 L 196 424.31256734931463 L 197 423.52591624194275 L 198 422.73499503728925 L 199 421.9399606304403 L 200 421.1409707324184 L 201 420.338183838897 L 202 419.53175919875974 L 203 418.72185678251043 L 204 417.9086372505393 L 205 417.09226192125317 L 206 416.2728927390746 L 207 415.4506922423168 L 208 414.6258235309411 L 209 413.7984502342027 L 210 412.96873647819143 L 211 412.1368468532745 L 212 411.302946381446 L 213 410.467200483592 L 214 409.6297749466759 L 215 408.7908358908511 L 216 407.9505497365078 L 217 407.10908317126035 L 218 406.26660311688113 L 219 405.4232766961886 L 220 404.5792711998948 L 221 403.7347540534201 L 222 402.88989278368086 L 223 402.0448549858574 L 224 401.1998082901477 L 225 400.35492032851494 L 226 399.51035870143426 L 227 398.6662909446456 L 228 397.82288449591994 L 229 396.9803066618446 L 230 396.13872458463453 L 231 395.2983052089763 L 232 394.45921524891116 L 233 393.6216211547644 L 234 392.78568908012613 L 235 391.9515848488915 L 236 391.11947392236647 L 237 390.28952136644483 L 238 389.4618918188643 L 239 388.6367494565473 L 240 387.81425796303324 L 241 386.99458049600844 L 242 386.1778796549407 L 243 385.36431744882424 L 244 384.55405526404223 L 245 383.7472538323522 L 246 382.9440731990021 L 247 382.1446726909818 L 248 381.34921088541745 L 249 380.5578455781146 L 250 379.7707337522562 L 251 378.9880315472619 L 252 378.2098942278145 L 253 377.4364761530602 L 254 376.6679307459883 L 255 375.9044104629969 L 256 375.14606676364974 L 257 374.3930500806315 L 258 373.6455097899062 L 259 372.9035941810857 L 260 372.16745042801324 L 261 371.43722455956885 L 262 370.7130614307014 L 263 369.99510469369363 L 264 369.2834967696661 L 265 368.5783788203249 L 266 367.8798907199594 L 267 367.1881710276956 L 268 366.50335696000985 L 269 365.82558436350934 L 270 365.15498768798426 L 271 364.49169995973693 L 272 363.8358527551933 L 273 363.18757617480225 L 274 362.5469988172275 L 275 361.91424775383746 L 276 361.2894485034981 L 277 360.6727250076738 L 278 360.06419960584094 L 279 359.46399301121966 L 280 358.87222428682765 L 281 358.28901082186195 L 282 357.71446830841217 L 283 357.1487107185107 L 284 356.59185028152433 L 285 356.04399746189085 L 286 355.5052609372067 L 287 354.97574757666814 L 288 354.455562419872 L 289 353.94480865597865 L 290 353.4435876032425 L 291 352.95199868891353 L 292 352.4701394295139 L 293 351.99810541149327 L 294 351.53599027226807 L 295 351.08388568164565 L 296 350.64188132364063 L 297 350.21006487868357 L 298 349.7885220062284 L 299 349.3773363277597 L 300 348.97658941020484 L 301 348.5863607497537 L 302 348.20672775608875 L 303 347.8377657370295 L 304 347.47954788359345 L 305 347.13214525547755 L 306 346.79562676696173 L 307 346.4700591732385 L 308 346.1555070571707 L 309 345.85203281648035 L 310 345.5596966513705 L 311 345.2785565525835 L 312 345.0086682898975 L 313 344.75008540106325 L 314 344.50285918118357 L 315 344.26703867253855 L 316 344.0426706548563 L 317 343.82979963603395 L 318 343.628467843308 L 319 343.4387152148782 L 320 343.26057939198466 L 321 343.0940957114412 L 322 342.93929719862535 L 323 342.79621456092724 L 324 342.6648761816583 L 325 342.54530811442055 L 326 342.43753407793855 L 327 342.3415754513544 L 328 342.25745126998646 L 329 342.1851782215536 L 330 342.12477064286475 L 331 342.0762405169749 L 332 342.03959747080796 L 333 342.01484877324714 L 334 342.0019993336931 L 335 342.0010517010899 L 336 342.0120060634195 L 337 342.03486024766437 L 338 342.06960972023865 L 339 342.11624758788736 L 340 342.17476459905396 L 341 342.2451491457155 L 342 342.3273872656852 L 343 342.42146264538246 L 344 342.5273566230685 L 345 342.64504819254876 L 346 342.7745140073395 L 347 342.9157283852996 L 348 343.0686633137243 L 349 343.2332884549029 L 350 343.40957115213627 L 351 343.5974764362154 L 352 343.796967032358 L 353 344.0080033676025 L 354 344.2305435786587 L 355 344.4645435202117 L 356 344.7099567736792 L 357 344.96673465641953 L 358 345.2348262313889 L 359 345.5141783172457 L 360 345.8047354989001 L 361 346.1064401385066 L 362 346.4192323868981 L 363 346.7430501954577 L 364 347.07782932842747 L 365 347.42350337565097 L 366 347.780003765747 L 367 348.14725977971193 L 368 348.52519856494854 L 369 348.91374514971756 L 370 349.31282245801 L 371 349.72235132483644 L 372 350.14225051193137 L 373 350.572436723868 L 374 351.01282462458215 L 375 351.4633268542997 L 376 351.92385404686667 L 377 352.3943148474765 L 378 352.87461593079234 L 379 353.3646620194598 L 380 353.8643559030071 L 381 354.37359845712905 L 382 354.8922886633499 L 383 355.42032362906275 L 384 355.95759860794004 L 385 356.5040070207125 L 386 357.05944047631067 L 387 357.62378879336717 L 388 358.1969400220728 L 389 358.7787804663843 L 390 359.36919470657836 L 391 359.96806562214704 L 392 360.57527441503123 L 393 361.1907006331868 L 394 361.81422219447825 L 395 362.4457154108966 L 396 363.0850550130949 L 397 363.7321141752385 L 398 364.38676454016286 L 399 365.04887624483644 L 400 365.718317946121 L 401 366.3949568468265 L 402 367.07865872205423 L 403 367.7692879458225 L 404 368.4667075179714 L 405 369.1707790913388 L 406 369.88136299920507 L 407 370.59831828299826 L 408 371.3215027202562 L 409 372.05077285283915 L 410 372.7859840153877 L 411 373.52699036401987 L 412 374.27364490526236 L 413 375.0257995252095 L 414 375.7833050189048 L 415 376.54601111993844 L 416 377.31376653025603 L 417 378.0864189501712 L 418 378.8638151085777 L 419 379.64580079335326 L 420 380.4322208819514 L 421 381.22291937217244 L 422 382.01773941311 L 423 382.81652333626533 L 424 383.61911268682434 L 425 384.42534825508983 L 426 385.23507010806446 L 427 386.0481176211761 L 428 386.8643295101413 L 429 387.6835438629594 L 430 388.50559817203055 L 431 389.33032936639273 L 432 390.15757384406993 L 433 390.98716750452616 L 434 391.8189457812176 L 435 392.6527436742384 L 436 393.4883957830509 L 437 394.32573633929684 L 438 395.1645992396803 L 439 396.004818078918 L 440 396.846226182749 L 441 397.68865664099775 L 442 398.5319423406844 L 443 399.37591599917465 L 444 400.2204101973637 L 445 401.06525741288755 L 446 401.9102900533538 L 447 402.7553404895875 L 448 403.6002410888835 L 449 404.44482424825975 L 450 405.2889224277049 L 451 406.1323681834129 L 452 406.97499420099933 L 453 407.816633328691 L 454 408.6571186104843 L 455 409.4962833192639 L 456 410.3339609898769 L 457 411.169985452154 L 458 412.0041908638731 L 459 412.83641174365704 L 460 413.66648300380075 L 461 414.494239983019 L 462 415.31951847911074 L 463 416.1421547815317 L 464 416.9619857038699 L 465 417.7788486162165 L 466 418.5925814774273 L 467 419.4030228672662 L 468 420.21001201842677 L 469 421.01338884842306 L 470 421.8129939913458 L 471 422.6086688294753 L 472 423.40025552474674 L 473 424.1875970500604 L 474 424.9705372204312 L 475 425.7489207239712 L 476 426.5225931526985 L 477 427.29140103316763 L 478 428.0551918569136 L 479 428.8138141107056 L 480 429.567117306602 L 481 430.3149520118032 L 482 431.05716987829436 L 483 431.7936236722733 L 484 432.5241673033572 L 485 433.2486558535627 L 486 433.96694560605306 L 487 434.6788940736475 L 488 435.3843600270862 L 489 436.0832035230462 L 490 436.77528593190175 L 491 437.46046996522443 L 492 438.13861970301673 L 493 438.80960062067516 L 494 439.47327961567504 L 495 440.129525033975 L 496 440.7782066961323 L 497 441.41919592312735 L 498 442.052365561889 L 499 442.6775900105185 L 500 443.2947452432049 L 501 443.903708834828 L 502 444.5043599852442 L 503 445.096579543249 L 504 445.68025003021364 L 505 446.255255663389 L 506 446.82148237887344 L 507 447.37881785423986 L 508 447.927151530817 L 509 448.4663746356209 L 510 448.9963802029323 L 511 449.51706309551525 L 512 450.02832002547365 L 513 450.5300495747398 L 514 451.0221522151934 L 515 451.50453032840437 L 516 451.97708822499783 L 517 452.43973216363577 L 518 452.89237036961276 L 519 453.33491305306086 L 520 453.7672724267618 L 521 454.189362723561 L 522 454.6011002133812 L 523 455.0024032198321 L 524 455.39319213641255 L 525 455.773389442302 L 526 456.14291971773827 L 527 456.50170965897877 L 528 456.8496880928416 L 529 457.18678599082403 L 530 457.51293648279625 L 531 457.82807487026565 L 532 458.13213863921175 L 533 458.4250674724866 L 534 458.7068032617802 L 535 458.97729011914726 L 536 459.23647438809394 L 537 459.4843046542213 L 538 459.7207317554249 L 539 459.94570879164655 L 540 460.15919113417823 L 541 460.36113643451506 L 542 460.5515046327557 L 543 460.7302579655496 L 544 460.8973609735873 L 545 461.05278050863535 L 546 461.1964857401112 L 547 461.32844816119973 L 548 461.44864159450754 L 549 461.5570421972561 L 550 461.6536284660116 L 551 461.73838124094993 L 552 461.81128370965826 L 553 461.8723214104695 L 554 461.9214822353314 L 555 461.9587564322081 L 556 461.98413660701493 L 557 461.99761772508526 L 558 461.99919711216876 L 559 461.9888744549624 L 560 461.9666518011723 L 561 461.9325335591075 L 562 461.8865264968059 L 563 461.828639740691 L 564 461.7588847737622 L 565 461.67727543331625 L 566 461.583827908203 L 567 461.4785607356134 L 568 461.3614947974029 L 569 461.2326533159485 L 570 461.0920618495425 L 571 460.9397482873226 L 572 460.7757428437389 L 573 460.6000780525611 L 574 460.41278876042435 L 575 460.21391211991653 L 576 460.00348758220855 L 577 459.78155688922857 L 578 459.5481640653813 L 579 459.303355408815 L 580 459.04717948223737 L 581 458.77968710328224 L 582 458.5009313344286 L 583 458.210967472475 L 584 457.9098530375697 L 585 457.5976477618012 L 586 457.2744135773485 L 587 456.94021460419606 L 588 456.5951171374138 L 589 456.2391896340068 L 590 455.872502699335 L 591 455.4951290731074 L 592 455.10714361495263 L 593 454.70862328956895 L 594 454.299647151457 L 595 453.8802963292376 L 596 453.4506540095582 L 597 453.01080542059117 L 598 452.5608378151273 L 599 452.10084045326704 L 600 451.63090458471453 L 601 451.1511234306757 L 602 450.66159216536664 L 603 450.16240789713345 L 604 449.6536696491891 L 605 449.1354783399699 L 606 448.6079367631166 L 607 448.0711495670832 L 608 447.52522323437756 L 609 446.97026606043863 L 610 446.40638813215395 L 611 445.8337013060216 L 612 445.25231918596137 L 613 444.6623571007787 L 614 444.06393208128753 L 615 443.4571628370944 L 616 442.84216973305035 L 617 442.21907476537393 L 618 441.58800153745074 L 619 440.9490752353144 L 620 440.3024226028135 L 621 439.64817191646915 L 622 438.98645296002854 L 623 438.31739699872054 L 624 437.64113675321573 L 625 436.9578063732993 L 626 436.2675414112591 L 627 435.57047879499663 L 628 434.8667568008644 L 629 434.1565150262362 L 630 433.4398943618149 L 631 432.7170369636842 L 632 431.98808622510916 L 633 431.253186748091 L 634 430.5124843146824 L 635 429.7661258580692 L 636 429.0142594334226 L 637 428.25703418853 L 638 427.4946003342079 L 639 426.7271091145054 L 640 425.9547127767012 L 641 425.1775645411026 L 642 424.3958185706514 L 643 423.60962994034185 L 644 422.8191546064593 L 645 422.0245493756426 L 646 421.22597187377863 L 647 420.42358051473366 L 648 419.6175344689292 L 649 418.80799363176715 L 650 417.99511859191153 L 651 417.17907059943207 L 652 416.36001153381744 L 653 415.5381038718631 L 654 414.7135106554408 L 655 413.88639545915566 L 656 413.0569223578982 L 657 412.2252558942968 L 658 411.3915610460773 L 659 410.5560031933359 L 660 409.7187480857336 L 661 408.8799618096157 L 662 408.0398107550656 L 663 407.1984615828977 L 664 406.3560811915973 L 665 405.5128366842125 L 666 404.66889533520634 L 667 403.82442455727437 L 668 402.9795918681346 L 669 402.13456485729785 L 670 401.28951115282234 L 671 400.44459838806176 L 672 399.59999416841106 L 673 398.75586603805954 L 674 397.9123814467544 L 675 397.0697077165843 L 676 396.2280120087868 L 677 395.3874612905894 L 678 394.54822230208805 L 679 393.7104615231707 L 680 392.87434514049255 L 681 392.0400390145102 L 682 391.2077086465793 L 683 390.37751914612437 L 684 389.5496351978857 L 685 388.72422102925134 L 686 387.9014403776788 L 687 387.08145645821475 L 688 386.26443193111805 L 689 385.45052886959246 L 690 384.63990872763657 L 691 383.83273230801603 L 692 383.0291597303653 L 693 382.2293503994239 L 694 381.43346297341645 L 695 380.6416553325788 L 696 379.85408454783976 L 697 379.0709068496625 L 698 378.2922775970534 L 699 377.5183512467435 L 700 376.74928132254905 L 701 375.9852203849162 L 702 375.22632000065863 L 703 374.4727307128906 L 704 373.7246020111638 L 705 372.98208230181314 L 706 372.24531887851737 L 707 371.51445789308053 L 708 370.7896443264397 L 709 370.07102195990495 L 710 369.3587333466378 L 711 368.65291978337274 L 712 367.9537212823882 L 713 367.2612765437324 L 714 366.57572292770885 L 715 365.89719642762935 L 716 365.2258316428359 L 717 364.5617617520007 L 718 363.90511848670724 L 719 363.25603210531915 L 720 362.6146313671403 L 721 361.98104350687333 L 722 361.3553942093795 L 723 360.7378075847471 L 724 360.12840614367144 L 725 359.52731077315275 L 726 358.93464071251503 L 727 358.3505135297536 L 728 357.7750450982122 L 729 357.2083495735979 L 730 356.65053937133536 L 731 356.1017251442675 L 732 355.5620157607052 L 733 355.03151828283086 L 734 354.51033794546055 L 735 353.99857813516877 L 736 353.49634036977943 L 737 353.0037242782278 L 738 352.52082758079735 L 739 352.0477460697344 L 740 351.5845735902464 L 741 351.1314020218856 L 742 350.68832126032294 L 743 350.2554191995153 L 744 349.8327817142702 L 745 349.4204926432106 L 746 349.0186337721441 L 747 348.6272848178387 L 748 348.2465234122096 L 749 347.8764250869196 L 750 347.51706325839535 L 751 347.1685092132641 L 752 346.8308320942124 L 753 346.5040988862704 L 754 346.188374403524 L 755 345.8837212762576 L 756 345.59019993852996 L 757 345.3078686161864 L 758 345.036783315308 L 759 344.77699781110215 L 760 344.52856363723447 L 761 344.2915300756069 L 762 344.0659441465811 L 763 343.85185059965124 L 764 343.64929190456684 L 765 343.45830824290834 L 766 343.27893750011594 L 767 343.1112152579746 L 768 342.9551747875554 L 769 342.81084704261576 L 770 342.67826065345895 L 771 342.5574419212549 L 772 342.4484148128226 L 773 342.35120095587615 L 774 342.265819634734 L 775 342.1922877864939 L 776 342.130619997673 L 777 342.0808285013143 L 778 342.0429231745597 L 779 342.01691153669117 L 780 342.00279874763896 L 781 342.00058760695777 L 782 342.0102785532718 L 783 342.03186966418735 L 784 342.0653566566745 L 785 342.11073288791664 L 786 342.167989356628 L 787 342.2371147048395 L 788 342.31809522015175 L 789 342.4109148384551 L 790 342.51555514711634 L 791 342.63199538863125 L 792 342.76021246474227 L 793 342.9001809410203 L 794 343.05187305191055 L 795 343.2152587062398 L 796 343.39030549318625 L 797 343.5769786887083 L 798 343.77524126243316 L 799 343.98505388500234 L 800 344.2063749358733 L 801 344.43916051157623 L 802 344.6833644344226 L 803 344.93893826166567 L 804 345.2058312951103 L 805 345.4839905911695 L 806 345.77336097136737 L 807 346.0738850332843 L 808 346.3855031619443 L 809 346.70815354164074 L 810 347.0417721681987 L 811 347.3862928616714 L 812 347.74164727946845 L 813 348.10776492991283 L 814 348.4845731862247 L 815 348.87199730092766 L 816 349.2699604206773 L 817 349.67838360150586 L 818 350.0971858244828 L 819 350.5262840117862 L 820 350.9655930431833 L 821 351.4150257729153 L 822 351.87449304698526 L 823 352.34390372084255 L 824 352.823164677464 L 825 353.3121808458251 L 826 353.81085521975973 L 827 354.3190888772027 L 828 354.8367809998132 L 829 355.36382889297414 L 830 355.90012800616364 L 831 356.445571953695 L 832 357.00005253581986 L 833 357.5634597601923 L 834 358.1356818636877 L 835 358.7166053345736 L 836 359.3061149350266 L 837 359.90409372399216 L 838 360.5104230803825 L 839 361.12498272660736 L 840 361.7476507524332 L 841 362.3783036391667 L 842 363.01681628415736 L 843 363.663062025614 L 844 364.3169126677305 L 845 364.9782385061162 L 846 365.6469083535253 L 847 366.32278956588056 L 848 367.0057480685858 L 849 367.69564838312226 L 850 368.3923536539236 L 851 369.095725675524 L 852 369.8056249199739 L 853 370.52191056451795 L 854 371.2444405195304 L 855 371.97307145670106 L 856 372.70765883746793 L 857 373.44805694168866 L 858 374.1941188965474 L 859 374.9456967056898 L 860 375.7026412785814 L 861 376.4648024600824 L 862 377.2320290602339 L 863 378.0041688842498 L 864 378.78106876270743 L 865 379.5625745819318 L 866 380.3485313145672 L 867 381.13878305032983 L 868 381.9331730269362 L 869 382.73154366119945 L 870 383.53373658028954 L 871 384.33959265314934 L 872 385.14895202206213 L 873 385.9616541343618 L 874 386.77753777428217 L 875 387.596441094937 L 876 388.4182016504263 L 877 389.2426564280597 L 878 390.06964188069423 L 879 390.8989939591765 L 880 391.7305481448854 L 881 392.564139482368 L 882 393.3996026120612 L 883 394.2367718030943 L 884 395.0754809861652 L 885 395.9155637864837 L 886 396.7568535567748 L 887 397.59918341033676 L 888 398.4423862541466 L 889 399.28629482200625 L 890 400.1307417077231 L 891 400.9755593983182 L 892 401.82058030725614 L 893 402.6656368076893 L 894 403.5105612657094 L 895 404.3551860736016 L 896 405.1993436830926 L 897 406.04286663858755 L 898 406.88558761038763 L 899 407.7273394278836 L 900 408.5679551127176 L 901 409.40726791190616 L 902 410.2451113309198 L 903 411.08131916670976 L 904 411.91572554067795 L 905 412.7481649315824 L 906 413.5784722083719 L 907 414.4064826629427 L 908 415.2320320428118 L 909 416.05495658369966 L 910 416.87509304201643 L 911 417.6922787272442 L 912 418.50635153421 L 913 419.3171499752429 L 914 420.12451321220817 L 915 420.9282810884125 L 916 421.7282941603746 L 917 422.5243937294539 L 918 423.3164218733318 L 919 424.10422147733834 L 920 424.88763626561934 L 921 425.66651083213674 L 922 426.44069067149667 L 923 427.21002220959843 L 924 427.97435283409925 L 925 428.7335309246877 L 926 429.4874058831609 L 927 430.2358281632988 L 928 430.9786493005291 L 929 431.71572194137894 L 930 432.4468998727046 L 931 433.1720380506967 L 932 433.8909926296518 L 933 434.60362099050735 L 934 435.30978176913317 L 935 436.00933488437374 L 936 436.70214156583614 L 937 437.38806438141785 L 938 438.06696726456914 L 939 438.738715541285 L 940 439.40317595681984 L 941 440.0602167021216 L 942 440.7097074399786 L 943 441.35151933087485 L 944 441.98552505854735 L 945 442.61159885524233 L 946 443.2296165266635 L 947 443.8394554766089 L 948 444.4409947312898 L 949 445.03411496332853 L 950 445.61869851542946 L 951 446.1946294237187 L 952 446.76179344074785 L 953 447.32007805815726 L 954 447.8693725289941 L 955 448.40956788968174 L 956 448.9405569816344 L 957 449.46223447251447 L 958 449.9744968771271 L 959 450.4772425779486 L 960 450.9703718452846 L 961 451.45378685705305 L 962 451.9273917181895 L 963 452.39109247966934 L 964 452.8447971571452 L 965 453.28841574919323 L 966 453.721860255167 L 967 454.1450446926541 L 968 454.5578851145327 L 969 454.9602996256238 L 970 455.35220839893685 L 971 455.7335336915054 L 972 456.1041998598083 L 973 456.46413337477605 L 974 456.81326283637577 L 975 457.1515189877755 L 976 457.47883472908234 L 977 457.7951451306534 L 978 458.1003874459755 L 979 458.3945011241125 L 980 458.6774278217165 L 981 458.9491114146018 L 982 459.209498008878 L 983 459.4585359516409 L 984 459.696175841219 L 985 459.9223705369733 L 986 460.1370751686486 L 987 460.3402471452745 L 988 460.53184616361375 L 989 460.71183421615785 L 990 460.88017559866614 L 991 461.03683691724854 L 992 461.18178709498994 L 993 461.3149973781151 L 994 461.4364413416922 L 995 461.546094894875 L 996 461.6439362856816 L 997 461.7299461053096 L 998 461.8041072919858 L 999 461.86640513435145 L 1000 461.9168272743796 L 1001 461.95536370982757 L 1002 461.9820067962203 L 1003 461.99675124836705 L 1004 461.9995941414101 L 1005 461.99053491140455 L 1006 461.9695753554304 L 1007 461.936719631236 L 1008 461.89197425641333 L 1009 461.835348107105 L 1010 461.7668524162437 L 1011 461.68650077132355 L 1012 461.59430911170523 L 1013 461.49029572545373 L 1014 461.37448124571057 L 1015 461.246888646601 L 1016 461.1075432386765 L 1017 460.9564726638939 L 1018 460.79370689013206 L 1019 460.61927820524716 L 1020 460.4332212106678 L 1021 460.235572814531 L 1022 460.0263722243609 L 1023 459.8056609392909 L 1024 459.5734827418317 L 1025 459.3298836891862 L 1026 459.0749121041128 L 1027 458.80861856534005 L 1028 458.53105589753295 L 1029 458.24227916081446 L 1030 457.9423456398429 L 1031 457.6313148324487 L 1032 457.30924843783146 L 1033 456.9762103443211 L 1034 456.6322666167039 L 1035 456.2774854831175 L 1036 455.91193732151646 L 1037 455.53569464571126 L 1038 455.14883209098383 L 1039 454.7514263992821 L 1040 454.3435564039966 L 1041 453.92530301432265 L 1042 453.49674919920983 L 1043 453.05797997090406 L 1044 452.60908236808297 L 1045 452.1501454385907 L 1046 451.68126022177324 L 1047 451.2025197304189 L 1048 450.71401893230717 L 1049 450.21585473137054 L 1050 449.7081259484709 L 1051 449.1909333017973 L 1052 448.6643793868855 L 1053 448.1285686562669 L 1054 447.5836073987479 L 1055 447.0296037183256 L 1056 446.46666751274273 L 1057 445.89491045168796 L 1058 445.3144459546433 L 1059 444.7253891683856 L 1060 444.1278569441443 L 1061 443.5219678144222 L 1062 442.90784196948204 L 1063 442.28560123350405 L 1064 441.6553690404198 L 1065 441.017270409427 L 1066 440.3714319201888 L 1067 439.71798168772466 L 1068 439.05704933699604 L 1069 438.38876597719235 L 1070 437.71326417572345 L 1071 437.0306779319218 L 1072 436.34114265046105 L 1073 435.64479511449576 L 1074 434.941773458528 L 1075 434.23221714100544 L 1076 433.5162669166569 L 1077 432.7940648085706 L 1078 432.06575408002186 L 1079 431.3314792060529 L 1080 430.5913858448142 L 1081 429.84562080866954 L 1082 429.0943320350734 L 1083 428.33766855722445 L 1084 427.57578047450176 L 1085 426.8088189226892 L 1086 426.03693604399547 L 1087 425.260284956873 L 1088 424.4790197256441 L 1089 423.69329532993885 L 1090 422.9032676339522 L 1091 422.10909335552526 L 1092 421.31093003505663 L 1093 420.50893600425167 L 1094 419.7032703547136 L 1095 418.8940929063852 L 1096 418.08156417584496 L 1097 417.2658453444654 L 1098 416.44709822643927 L 1099 415.6254852366811 L 1100 414.8011693586083 L 1101 413.9743141118107 L 1102 413.1450835196124 L 1103 412.31364207653525 L 1104 411.48015471566765 L 1105 410.6447867759469 L 1106 409.80770396936055 L 1107 408.9690723480747 L 1108 408.1290582714938 L 1109 407.28782837326014 L 1110 406.4455495281984 L 1111 405.602388819213 L 1112 404.75851350414393 L 1113 403.91409098258737 L 1114 403.0692887626892 L 1115 402.22427442791565 L 1116 401.3792156038105 L 1117 400.53427992474286 L 1118 399.6896350006536 L 1119 398.8454483838062 L 1120 398.00188753554994 L 1121 397.15911979310044 L 1122 396.31731233634486 L 1123 395.476632154678 L 1124 394.6372460138776 L 1125 393.7993204230221 L 1126 392.9630216014608 L 1127 392.1285154458403 L 1128 391.2959674971964 L 1129 390.4655429081149 L 1130 389.637406409971 L 1131 388.8117222802507 L 1132 387.9886543099639 L 1133 387.1683657711527 L 1134 386.3510193845033 L 1135 385.5367772870667 L 1136 384.7258010000961 L 1137 383.9182513970058 L 1138 383.1142886714582 L 1139 382.3140723055872 L 1140 381.5177610383604 L 1141 380.72551283409143 L 1142 379.9374848511035 L 1143 379.15383341055394 L 1144 378.3747139654261 L 1145 377.6002810696902 L 1146 376.83068834764555 L 1147 376.0660884634464 L 1148 375.30663309081683 L 1149 374.5524728829645 L 1150 373.80375744269435 L 1151 373.0606352927325 L 1152 372.3232538462643 L 1153 371.5917593776909 L 1154 370.8662969936131 L 1155 370.1470106040476 L 1156 369.4340428938776 L 1157 368.72753529455053 L 1158 368.0276279560206 L 1159 367.33445971894787 L 1160 366.64816808715693 L 1161 365.9688892003593 L 1162 365.2967578071482 L 1163 364.6319072382679 L 1164 363.97446938016503 L 1165 363.3245746488268 L 1166 362.68235196390935 L 1167 362.04792872316483 L 1168 361.4214307771693 L 1169 360.8029824043572 L 1170 360.1927062863692 L 1171 359.5907234837149 L 1172 358.9971534117584 L 1173 358.41211381703044 L 1174 357.8357207538699 L 1175 357.2680885614028 L 1176 356.70932984086113 L 1177 356.1595554332451 L 1178 355.61887439733687 L 1179 355.0873939880654 L 1180 354.56521963523096 L 1181 354.05245492259115 L 1182 353.54920156731225 L 1183 353.05555939979206 L 1184 352.5716263438569 L 1185 352.0974983973356 L 1186 351.6332696130172 L 1187 351.179032079993 L 1188 350.73487590538946 L 1189 350.3008891964933 L 1190 349.87715804327354 L 1191 349.46376650130446 L 1192 349.0607965750906 L 1193 348.6683282018 L 1194 348.28643923540744 L 1195 347.9152054312496 L 1196 347.55470043099825 L 1197 347.20499574805183 L 1198 346.8661607533488 L 1199 346.5382626616074 L 1200 346.22136651799144 L 1201 345.91553518520766 L 1202 345.6208293310358 L 1203 345.3373074162935 L 1204 345.0650256832399 L 1205 344.80403814441854 L 1206 344.5543965719429 L 1207 344.3161504872266 L 1208 344.0893471511596 L 1209 343.87403155473294 L 1210 343.67024641011454 L 1211 343.47803214217544 L 1212 343.29742688047145 L 1213 343.128466451679 L 1214 342.9711843724884 L 1215 342.82561184295497 L 1216 342.6917777403101 L 1217 342.56970861323265 L 1218 342.4594286765826 L 1219 342.3609598065975 L 1220 342.274321536553 L 1221 342.1995310528878 L 1222 342.1366031917945 L 1223 342.08555043627683 L 1224 342.0463829136728 L 1225 342.0191083936462 L 1226 342.00373228664523 L 1227 342.0002576428292 L 1228 342.0086851514632 L 1229 342.02901314078207 L 1230 342.06123757832125 L 1231 342.1053520717172 L 1232 342.1613478699752 L 1233 342.22921386520545 L 1234 342.3089365948265 L 1235 342.4005002442357 L 1236 342.5038866499464 L 1237 342.6190753031913 L 1238 342.7460433539904 L 1239 342.8847656156839 L 1240 343.03521456992854 L 1241 343.1973603721563 L 1242 343.3711708574948 L 1243 343.55661154714784 L 1244 343.75364565523466 L 1245 343.9622340960876 L 1246 344.1823354920054 L 1247 344.41390618146096 L 1248 344.65690022776295 L 1249 344.9112694281679 L 1250 345.17696332344246 L 1251 345.45392920787305 L 1252 345.74211213972046 L 1253 346.0414549521196 L 1254 346.351898264419 L 1255 346.6733804939603 L 1256 347.0058378682947 L 1257 347.34920443783295 L 1258 347.70341208892836 L 1259 348.06839055738834 L 1260 348.4440674424122 L 1261 348.8303682209541 L 1262 349.22721626250564 L 1263 349.63453284429727 L 1264 350.05223716691467 L 1265 350.48024637032637 L 1266 350.9184755503214 L 1267 351.36683777535137 L 1268 351.82524410377493 L 1269 352.29360360150184 L 1270 352.7718233600304 L 1271 353.25980851487896 L 1272 353.7574622644034 L 1273 354.2646858889998 L 1274 354.7813787706877 L 1275 355.3074384130697 L 1276 355.84276046166303 L 1277 356.3872387246015 L 1278 356.94076519369946 L 1279 357.5032300658785 L 1280 358.07452176494877 L 1281 358.6545269637418 L 1282 359.2431306065921 L 1283 359.8402159321598 L 1284 360.4456644965938 L 1285 361.05935619702643 L 1286 361.6811692953984 L 1287 362.31098044260864 L 1288 362.9486647029828 L 1289 363.5940955790559 L 1290 364.2471450366671 L 1291 364.9076835303565 L 1292 365.575580029064 L 1293 366.25070204212176 L 1294 366.9329156455357 L 1295 367.6220855085529 L 1296 368.31807492050706 L 1297 369.02074581793687 L 1298 369.729958811975 L 1299 370.44557321599746 L 1300 371.1674470735327 L 1301 371.8954371864209 L 1302 372.62939914321987 L 1303 373.369187347853 L 1304 374.11465504848996 L 1305 374.86565436665893 L 1306 375.62203632658077 L 1307 376.3836508847209 L 1308 377.1503469595544 L 1309 377.92197246153563 L 1310 378.69837432326767 L 1311 379.47939852986747 L 1312 380.2648901495164 L 1313 381.05469336419566 L 1314 381.8486515005947 L 1315 382.64660706119065 L 1316 383.4484017554918 L 1317 384.25387653143724 L 1318 385.0628716069475 L 1319 385.87522650162197 L 1320 386.6907800685714 L 1321 387.50937052638676 L 1322 388.33083549123046 L 1323 389.15501200904833 L 1324 389.98173658789585 L 1325 390.81084523036947 L 1326 391.64217346613816 L 1327 392.475556384571 L 1328 393.3108286674485 L 1329 394.1478246217586 L 1330 394.9863782125645 L 1331 395.82632309594015 L 1332 396.6674926519696 L 1333 397.5097200177978 L 1334 398.3528381207324 L 1335 399.1966797113855 L 1336 400.0410773968503 L 1337 400.88586367390815 L 1338 401.73087096225527 L 1339 402.5759316377453 L 1340 403.42087806564246 L 1341 404.2655426338732 L 1342 405.1097577862774 L 1343 405.9533560558452 L 1344 406.7961700979375 L 1345 407.63803272348304 L 1346 408.478776932143 L 1347 409.3182359454384 L 1348 410.15624323983553 L 1349 410.99263257977714 L 1350 411.8272380506605 L 1351 412.65989409174915 L 1352 413.4904355290143 L 1353 414.3186976079022 L 1354 415.1445160260148 L 1355 415.96772696570366 L 1356 416.78816712656607 L 1357 417.6056737578382 L 1358 418.4200846906814 L 1359 419.2312383703508 L 1360 420.0389738882424 L 1361 420.8431310138141 L 1362 421.6435502263687 L 1363 422.4400727466998 L 1364 423.2325405685879 L 1365 424.02079649014394 L 1366 424.80468414499404 L 1367 425.5840480332979 L 1368 426.35873355259434 L 1369 427.1285870284714 L 1370 427.89345574504887 L 1371 428.6531879752745 L 1372 429.40763301102066 L 1373 430.15664119298066 L 1374 430.9000639403573 L 1375 431.6377537803358 L 1376 432.369564377339 L 1377 433.0953505620555 L 1378 433.81496836023643 L 1379 434.5282750212567 L 1380 435.2351290464319 L 1381 435.93539021708665 L 1382 436.62891962237137 L 1383 437.31557968681653 L 1384 437.9952341976245 L 1385 438.66774833168984 L 1386 439.3329886823436 L 1387 439.9908232858181 L 1388 440.64112164742426 L 1389 441.2837547674371 L 1390 441.91859516668677 L 1391 442.5455169118454 L 1392 443.1643956404094 L 1393 443.77510858536874 L 1394 444.37753459956 L 1395 444.97155417969924 L 1396 445.55704949008725 L 1397 446.1339043859842 L 1398 446.70200443665055 L 1399 447.2612369480452 L 1400 447.81149098518193 L 1401 448.35265739413484 L 1402 448.884628823691 L 1403 449.4072997466467 L 1404 449.9205664807396 L 1405 450.4243272092174 L 1406 450.9184820010346 L 1407 451.4029328306757 L 1408 451.87758359760085 L 1409 452.3423401453095 L 1410 452.7971102800175 L 1411 453.24180378894636 L 1412 453.67633245821816 L 1413 454.1006100903552 L 1414 454.51455252137845 L 1415 454.91807763750313 L 1416 455.3111053914281 L 1417 455.69355781821463 L 1418 456.0653590507519 L 1419 456.4264353348076 L 1420 456.77671504365765 L 1421 457.1161286922955 L 1422 457.4446089512156 L 1423 457.76209065976946 L 1424 458.0685108390917 L 1425 458.36380870459317 L 1426 458.64792567801874 L 1427 458.9208053990677 L 1428 459.18239373657343 L 1429 459.43263879924194 L 1430 459.67149094594544 L 1431 459.8989027955692 L 1432 460.1148292364113 L 1433 460.31922743513076 L 1434 460.51205684524484 L 1435 460.69327921517197 L 1436 460.8628585958199 L 1437 461.02076134771687 L 1438 461.1669561476846 L 1439 461.3014139950518 L 1440 461.4241082174076 L 1441 461.5350144758916 L 1442 461.6341107700228 L 1443 461.7213774420635 L 1444 461.79679718091876 L 1445 461.86035502557047 L 1446 461.9120383680453 L 1447 461.9518369559154 L 1448 461.9797428943327 L 1449 461.99575064759443 L 1450 461.99985704024164 L 1451 461.992061257689 L 1452 461.97236484638637 L 1453 461.940771713512 L 1454 461.89728812619757 L 1455 461.84192271028485 L 1456 461.7746864486146 L 1457 461.6955926788482 L 1458 461.6046570908213 L 1459 461.50189772343197 L 1460 461.38733496106204 L 1461 461.2609915295334 L 1462 461.12289249160006 L 1463 460.9730652419764 L 1464 460.8115395019028 L 1465 460.63834731325 L 1466 460.4535230321626 L 1467 460.2571033222442 L 1468 460.04912714728437 L 1469 459.8296357635292 L 1470 459.59867271149767 L 1471 459.35628380734397 L 1472 459.10251713376937 L 1473 458.83742303048405 L 1474 458.5610540842209 L 1475 458.27346511830433 L 1476 457.9747131817745 L 1477 457.6648575380707 L 1478 457.3439596532754 L 1479 457.01208318392116 L 1480 456.6692939643627 L 1481 456.31565999371793 L 1482 455.9512514223785 L 1483 455.5761405380945 L 1484 455.1904017516342 L 1485 454.79411158202345 L 1486 454.3873486413668 L 1487 453.970193619253 L 1488 453.5427292667483 L 1489 453.1050403799819 L 1490 452.657213783324 L 1491 452.1993383121634 L 1492 451.73150479528425 L 1493 451.2538060368491 L 1494 450.7663367979891 L 1495 450.26919377800584 L 1496 449.76247559519004 L 1497 449.2462827672574 L 1498 448.72071769140985 L 1499 448.1858846240228 L 1500 447.6418896599634 L 1501 447.0888407115449 L 1502 446.5268474871202 L 1503 445.95602146931833 L 1504 445.37647589293056 L 1505 444.7883257224471 L 1506 444.19168762925204 L 1507 443.5866799684796 L 1508 442.9734227555351 L 1509 442.3520376422882 L 1510 441.72264789294104 L 1511 441.08537835957503 L 1512 440.44035545738575 L 1513 439.7877071396043 L 1514 439.1275628721162 L 1515 438.46005360777906 L 1516 437.7853117604451 L 1517 437.1034711786948 L 1518 436.41466711928473 L 1519 435.71903622031675 L 1520 435.01671647413394 L 1521 434.30784719994585 L 1522 433.5925690161923 L 1523 432.87102381264924 L 1524 432.14335472228123 L 1525 431.40970609284926 L 1526 430.6702234582753 L 1527 429.9250535097732 L 1528 429.1743440667502 L 1529 428.4182440474829 L 1530 427.65690343957675 L 1531 426.8904732702137 L 1532 426.11910557619154 L 1533 425.34295337376585 L 1534 424.5621706282948 L 1535 423.7769122236978 L 1536 422.98733393173154 L 1537 422.1935923810884 L 1538 421.39584502632675 L 1539 420.59425011663694" stroke-linecap="round" stroke-linejoin="round" stroke-miterlimit="10" stroke-width="6"/></g></svg>