<?xml version="1.0" standalone="no"?>
<!DOCTYPE svg PUBLIC "-//W3C//DTD SVG 20010904//EN"
 "http://www.w3.org/TR/2001/REC-SVG-20010904/DTD/svg10.dtd">
<svg version="1.0" xmlns="http://www.w3.org/2000/svg"
 width="512.000000pt" height="512.000000pt" viewBox="0 0 512.000000 512.000000"
 preserveAspectRatio="xMidYMid meet">
<metadata>
Created by potrace 1.14, written by Peter Selinger 2001-2017
</metadata>
<g transform="translate(0.000000,512.000000) scale(0.100000,-0.100000)"
fill="#f18579" stroke="none">
<path d="M2455 5086 c-112 -27 -220 -105 -285 -206 l-32 -50 -45 31 c-224 154
-540 68 -661 -180 l-37 -76 -59 9 c-132 21 -271 -28 -377 -133 -90 -91 -139
-203 -139 -321 0 -38 -2 -40 -56 -66 -80 -38 -174 -130 -212 -207 -92 -187
-55 -395 97 -539 l66 -63 21 -140 21 -140 -129 -258 -129 -258 3 -642 c3 -629
3 -643 24 -688 31 -66 78 -114 142 -146 54 -26 66 -28 227 -33 l170 -5 52
-345 c28 -190 60 -396 69 -459 12 -81 22 -119 36 -133 17 -17 68 -18 1338 -18
1270 0 1321 1 1338 18 14 14 24 52 36 133 10 63 41 269 69 459 l52 345 170 5
c145 5 177 8 216 27 60 27 125 92 153 152 21 45 21 55 24 688 l3 642 -129 258
-129 258 21 140 22 140 70 70 c81 81 118 150 136 254 15 91 0 189 -44 278 -38
77 -132 169 -212 207 -54 26 -56 28 -56 66 0 112 -47 224 -131 314 -99 107
-251 162 -385 140 l-59 -9 -37 76 c-103 210 -341 308 -562 230 -30 -10 -75
-33 -99 -50 l-45 -31 -31 49 c-110 170 -308 253 -496 207z m249 -141 c82 -39
150 -119 177 -206 32 -104 69 -116 139 -43 59 60 105 89 176 110 183 53 373
-69 415 -266 7 -34 18 -56 34 -66 21 -14 30 -13 95 7 129 39 253 6 344 -91 71
-76 89 -125 90 -245 1 -55 5 -105 9 -112 4 -6 38 -21 76 -32 88 -27 167 -95
208 -179 23 -49 27 -70 27 -142 0 -72 -4 -94 -27 -141 -75 -155 -243 -230
-406 -180 -59 18 -82 32 -135 81 -38 37 -72 60 -86 60 -14 0 -47 -23 -86 -60
-51 -47 -77 -63 -130 -80 -83 -25 -125 -25 -208 0 -53 17 -79 33 -130 80 -39
37 -72 60 -86 60 -14 0 -47 -23 -86 -60 -51 -47 -77 -63 -130 -80 -83 -25
-125 -25 -208 0 -53 17 -79 33 -130 80 -39 37 -72 60 -86 60 -14 0 -47 -23
-86 -60 -51 -47 -77 -63 -130 -80 -83 -25 -125 -25 -208 0 -53 17 -79 33 -130
80 -39 37 -72 60 -86 60 -14 0 -47 -23 -86 -60 -51 -47 -77 -63 -130 -80 -79
-24 -123 -25 -194 -4 -65 19 -113 49 -165 103 -54 56 -74 54 -151 -19 -80 -74
-169 -107 -265 -96 -233 24 -375 276 -273 483 38 79 120 148 205 174 38 11 72
26 76 32 4 7 8 57 9 112 1 120 19 169 90 245 91 97 215 130 344 91 65 -20 74
-21 95 -7 16 10 27 32 34 66 44 205 234 320 430 261 61 -18 82 -31 140 -86 97
-92 126 -87 160 24 34 111 130 202 245 232 56 15 160 2 220 -26z m-92 -1635
c29 -22 72 -47 96 -56 l42 -17 0 -127 c0 -70 -3 -228 -7 -352 l-6 -224 -46
-17 c-26 -9 -66 -32 -89 -52 l-42 -37 -42 37 c-23 20 -63 43 -89 52 l-46 17
-6 230 c-4 127 -7 285 -7 351 l1 120 68 33 c38 18 79 44 91 58 13 13 25 24 27
24 1 0 26 -18 55 -40z m-1220 -39 c74 -44 211 -62 303 -41 22 5 40 8 41 7 3
-3 44 -636 44 -670 l0 -27 -177 2 -177 3 -38 340 c-36 337 -42 405 -34 405 3
0 20 -9 38 -19z m2377 -13 c0 -18 -17 -186 -37 -373 l-37 -340 -178 -3 -177
-2 0 27 c0 34 41 667 44 670 1 1 19 -2 41 -7 91 -21 232 -3 300 40 42 25 45
25 44 -12z m-2954 -655 l7 -63 -81 0 -81 0 63 126 62 125 12 -63 c6 -35 15
-91 18 -125z m3584 60 l61 -123 -80 0 c-74 0 -80 2 -80 21 0 26 32 231 35 227
2 -2 30 -58 64 -125z m-2001 -264 c52 -26 92 -81 99 -141 7 -52 27 -78 63 -78
36 0 56 26 63 78 7 60 47 115 99 141 44 21 48 21 911 21 l867 0 -2 -598 -3
-598 -27 -41 c-16 -24 -44 -49 -70 -62 -44 -21 -50 -21 -838 -21 -788 0 -794
0 -838 21 -52 26 -92 81 -99 141 -7 52 -27 78 -63 78 -36 0 -56 -26 -63 -78
-7 -60 -47 -115 -99 -141 -44 -21 -50 -21 -838 -21 -788 0 -794 0 -838 21 -26
13 -54 38 -70 62 l-27 41 -3 598 -2 598 867 0 c863 0 867 0 911 -21z m188
-1330 c10 -12 42 -34 69 -50 l50 -28 -6 -268 c-4 -147 -7 -339 -8 -425 l-1
-158 -130 0 -130 0 -1 158 c-1 86 -4 278 -8 425 l-6 268 50 28 c28 16 59 38
69 50 11 11 22 21 26 21 4 0 15 -10 26 -21z m-680 -429 c12 -184 24 -372 28
-417 l6 -83 -127 0 -128 0 -43 403 c-23 221 -42 410 -42 420 0 16 12 17 143
15 l142 -3 21 -335z m1614 323 c1 -10 -19 -199 -42 -420 l-43 -403 -129 0
-128 0 6 53 c3 28 15 212 27 407 11 195 22 361 25 368 2 9 40 12 144 12 127 0
140 -2 140 -17z"/>
<path d="M797 2242 c-15 -17 -17 -65 -17 -484 0 -438 1 -466 18 -481 17 -16
84 -17 764 -17 709 0 746 1 761 18 15 17 17 65 17 484 0 438 -1 466 -18 481
-17 16 -84 17 -764 17 -709 0 -746 -1 -761 -18z"/>
<path d="M2797 2242 c-15 -17 -17 -65 -17 -484 0 -438 1 -466 18 -481 17 -16
84 -17 764 -17 709 0 746 1 761 18 15 17 17 65 17 484 0 438 -1 466 -18 481
-17 16 -84 17 -764 17 -709 0 -746 -1 -761 -18z"/>
</g>
</svg>
