<?xml version="1.0" standalone="no"?>
<!DOCTYPE svg PUBLIC "-//W3C//DTD SVG 20010904//EN"
 "http://www.w3.org/TR/2001/REC-SVG-20010904/DTD/svg10.dtd">
<svg version="1.0" xmlns="http://www.w3.org/2000/svg"
 width="512.000000pt" height="512.000000pt" viewBox="0 0 512.000000 512.000000"
 preserveAspectRatio="xMidYMid meet">
<metadata>
Created by potrace 1.14, written by Peter Selinger 2001-2017
</metadata>
<g transform="translate(0.000000,512.000000) scale(0.100000,-0.100000)"
fill="#000000" stroke="none">
<path d="M2441 5084 c-109 -29 -211 -106 -273 -206 l-29 -47 -42 29 c-141 95
-338 104 -477 23 -78 -46 -148 -120 -187 -199 l-36 -73 -76 5 c-182 14 -352
-75 -441 -232 -33 -56 -60 -157 -60 -221 0 -41 -1 -42 -64 -73 -193 -95 -295
-317 -241 -525 23 -86 60 -147 134 -217 l65 -63 22 -140 22 -140 -129 -258
-130 -258 3 -642 c3 -629 3 -643 24 -688 31 -66 78 -114 142 -146 54 -26 66
-28 227 -33 l169 -5 51 -340 c29 -187 60 -393 70 -459 13 -85 23 -124 36 -137
18 -18 62 -19 1339 -19 1277 0 1321 1 1339 19 13 13 23 52 36 137 10 66 41
272 70 459 l51 340 169 5 c161 5 173 7 227 33 64 32 111 80 142 146 21 45 21
59 24 688 l3 642 -130 258 -129 258 22 140 22 140 62 59 c35 33 76 83 92 111
75 131 78 301 9 438 -35 67 -132 161 -205 197 -63 31 -64 32 -64 73 0 65 -28
165 -60 222 -35 62 -130 154 -188 184 -69 35 -168 54 -253 47 l-76 -5 -37 73
c-61 124 -182 218 -317 247 -108 23 -249 -6 -346 -71 l-43 -29 -25 43 c-32 55
-129 147 -183 175 -97 50 -226 63 -331 35z m265 -139 c80 -39 149 -120 175
-206 32 -104 69 -116 139 -43 59 60 105 89 176 110 183 53 372 -68 415 -266 7
-34 18 -56 34 -66 21 -14 30 -13 95 7 84 25 163 22 236 -10 62 -28 139 -104
171 -170 25 -50 28 -67 28 -156 0 -55 4 -105 8 -112 4 -6 38 -21 76 -32 87
-27 167 -95 208 -179 24 -49 28 -69 28 -142 -1 -65 -6 -96 -22 -132 -30 -66
-105 -143 -172 -175 -48 -24 -68 -28 -141 -27 -106 1 -159 22 -239 99 -36 34
-67 55 -81 55 -14 0 -45 -21 -81 -55 -81 -77 -133 -98 -239 -98 -106 0 -158
21 -239 98 -36 34 -67 55 -81 55 -14 0 -45 -21 -81 -55 -81 -77 -133 -98 -239
-98 -106 0 -158 21 -239 98 -36 34 -67 55 -81 55 -14 0 -45 -21 -81 -55 -81
-77 -133 -98 -239 -98 -106 0 -158 21 -239 98 -36 34 -67 55 -81 55 -14 0 -45
-21 -81 -55 -102 -97 -210 -125 -338 -86 -59 18 -82 32 -135 81 -39 37 -72 60
-86 60 -14 0 -45 -21 -81 -55 -81 -77 -133 -98 -239 -98 -65 0 -96 4 -133 21
-66 30 -142 104 -174 171 -23 47 -27 69 -28 141 0 73 4 93 28 142 41 84 121
152 208 179 38 11 72 26 76 32 4 7 8 57 8 112 0 89 3 106 28 156 76 157 242
230 407 180 65 -20 74 -21 95 -7 16 10 27 32 34 66 44 206 234 321 430 261 61
-18 82 -31 140 -86 96 -91 126 -87 160 24 33 108 123 198 231 228 67 19 172 9
236 -22z m-110 -1625 c19 -16 61 -42 94 -57 l60 -28 0 -120 c0 -66 -3 -224 -7
-351 l-6 -230 -46 -17 c-26 -9 -66 -32 -89 -52 l-42 -37 -42 37 c-23 20 -63
43 -89 52 l-46 17 -6 230 c-4 127 -7 285 -7 352 l0 120 54 23 c30 12 71 37 92
56 22 19 41 34 43 35 2 0 19 -13 37 -30z m-1204 -49 c74 -44 211 -62 303 -41
22 5 40 8 41 7 3 -3 44 -636 44 -670 l0 -27 -177 2 -177 3 -38 340 c-36 337
-42 405 -34 405 3 0 20 -9 38 -19z m2377 -13 c0 -18 -17 -186 -37 -373 l-38
-340 -177 -3 -177 -2 0 27 c0 34 41 667 44 670 1 1 19 -2 41 -7 91 -21 232 -3
300 40 41 25 45 25 44 -12z m-2964 -580 c23 -149 28 -138 -65 -138 l-80 0 62
125 c35 69 64 122 65 118 1 -5 9 -52 18 -105z m3594 -15 l61 -123 -80 0 c-69
0 -80 2 -80 18 0 23 32 233 35 230 2 -2 30 -58 64 -125z m-2001 -264 c52 -26
89 -77 98 -139 8 -55 28 -80 64 -80 36 0 56 26 63 78 7 60 47 115 99 141 44
21 48 21 911 21 l868 0 -3 -597 -3 -598 -23 -37 c-13 -20 -40 -47 -60 -60
l-37 -23 -804 -3 -804 -2 -44 21 c-53 26 -93 81 -100 141 -7 52 -27 78 -63 78
-36 0 -56 -25 -64 -80 -9 -57 -38 -103 -84 -132 l-37 -23 -804 -3 -804 -2 -44
21 c-27 13 -55 37 -71 62 l-27 41 -3 598 -2 598 867 0 c863 0 867 0 911 -21z
m199 -1340 c20 -17 51 -38 69 -47 l34 -16 0 -135 c0 -75 -3 -268 -7 -429 l-6
-292 -127 0 -127 0 -6 287 c-4 157 -7 350 -7 427 l0 141 44 23 c24 13 54 35
67 48 12 13 24 24 27 24 2 0 20 -14 39 -31z m-691 -424 c12 -187 25 -375 28
-418 l7 -78 -128 3 -128 3 -42 380 c-23 209 -42 397 -42 418 l-1 38 142 -3
143 -3 21 -340z m1615 333 c0 -7 -19 -196 -43 -420 l-43 -408 -128 0 -129 0 6
48 c3 26 15 209 27 407 11 198 23 366 25 373 2 9 40 12 144 12 105 0 140 -3
141 -12z"/>
<path d="M797 2242 c-15 -17 -17 -65 -17 -484 0 -438 1 -466 18 -481 17 -16
84 -17 764 -17 709 0 746 1 761 18 15 17 17 65 17 484 0 438 -1 466 -18 481
-17 16 -84 17 -764 17 -709 0 -746 -1 -761 -18z"/>
<path d="M2797 2242 c-15 -17 -17 -65 -17 -484 0 -438 1 -466 18 -481 17 -16
84 -17 764 -17 709 0 746 1 761 18 15 17 17 65 17 484 0 438 -1 466 -18 481
-17 16 -84 17 -764 17 -709 0 -746 -1 -761 -18z"/>
</g>
</svg>
